<?xml version="1.0" standalone="no"?>
<!DOCTYPE svg PUBLIC "-//W3C//DTD SVG 20010904//EN"
 "http://www.w3.org/TR/2001/REC-SVG-20010904/DTD/svg10.dtd">
<svg version="1.0" xmlns="http://www.w3.org/2000/svg"
 width="500.000000pt" height="500.000000pt" viewBox="0 0 500.000000 500.000000"
 preserveAspectRatio="xMidYMid meet">

<g transform="translate(0.000000,500.000000) scale(0.100000,-0.100000)"
fill="#000000" stroke="none">
<path d="M0 2500 l0 -2500 2500 0 2500 0 0 2500 0 2500 -2500 0 -2500 0 0
-2500z m1600 585 c79 -40 110 -88 110 -170 0 -64 -16 -102 -60 -139 -90 -75
-311 -74 -401 1 -39 34 -59 79 -59 137 0 96 53 160 155 187 53 14 216 4 255
-16z m330 -125 l0 -140 140 0 140 0 0 -45 0 -45 -220 0 -220 0 0 185 0 185 80
0 80 0 0 -140z m774 110 c69 -35 88 -74 84 -168 -3 -70 -5 -76 -40 -107 -58
-53 -115 -65 -320 -65 l-178 0 0 186 0 185 203 -3 c193 -3 205 -4 251 -28z
m306 -155 l0 -185 -80 0 -80 0 0 185 0 185 80 0 80 0 0 -185z m510 140 l0 -45
-135 0 -135 0 0 -30 0 -30 115 0 115 0 0 -35 0 -35 -115 0 -115 0 0 -30 0 -30
145 0 145 0 0 -45 0 -45 -225 0 -225 0 0 185 0 185 215 0 215 0 0 -45z m-1358
-515 c52 -15 78 -39 84 -81 5 -28 1 -41 -19 -64 l-24 -29 31 -21 c42 -28 48
-84 13 -119 -36 -36 -107 -46 -317 -46 l-190 0 0 185 0 185 193 0 c105 0 209
-5 229 -10z m308 -82 c0 -122 12 -163 50 -176 33 -12 67 -6 93 16 14 13 17 33
17 134 l0 118 80 0 80 0 0 -125 c0 -138 -7 -164 -59 -208 -65 -54 -247 -63
-332 -15 -67 37 -83 79 -88 226 l-3 122 81 0 81 0 0 -92z m810 47 l0 -45 -75
0 -75 0 0 -140 0 -140 -80 0 -80 0 0 140 0 140 -70 0 -70 0 0 45 0 45 225 0
225 0 0 -45z m-1844 -526 c43 -22 94 -76 94 -100 0 -12 -167 -11 -175 0 -13
22 -73 32 -115 21 -33 -9 -44 -18 -56 -46 -31 -74 16 -130 107 -128 58 2 104
23 51 24 -31 0 -33 2 -30 33 l3 32 108 3 107 3 0 -96 0 -95 -34 0 c-19 0 -36
6 -39 14 -4 11 -16 10 -64 -6 -46 -16 -75 -19 -145 -15 -158 8 -232 69 -232
191 0 137 87 198 275 193 79 -2 104 -7 145 -28z m554 6 c79 -40 110 -88 110
-170 0 -64 -16 -102 -60 -139 -90 -75 -311 -74 -401 1 -39 34 -59 79 -59 137
0 96 53 160 155 187 53 14 216 4 255 -16z m330 -125 l0 -140 140 0 140 0 0
-45 0 -45 -220 0 -220 0 0 185 0 185 80 0 80 0 0 -140z m774 110 c69 -35 88
-74 84 -168 -3 -70 -5 -76 -40 -107 -58 -53 -115 -65 -320 -65 l-178 0 0 186
0 185 203 -3 c193 -3 205 -4 251 -28z m306 -155 l0 -185 -80 0 -80 0 0 185 0
185 80 0 80 0 0 -185z m510 140 l0 -45 -135 0 -135 0 0 -30 0 -30 115 0 115 0
0 -35 0 -35 -115 0 -115 0 0 -30 0 -30 145 0 145 0 0 -45 0 -45 -225 0 -225 0
0 185 0 185 215 0 215 0 0 -45z m-2786 -692 l24 -48 21 48 c28 65 45 57 49
-21 2 -51 0 -62 -13 -62 -10 0 -15 10 -16 33 l0 32 -16 -32 c-21 -43 -34 -41
-55 5 l-16 37 -1 -37 c-2 -66 -21 -41 -21 27 0 36 4 65 10 65 5 0 21 -21 34
-47z m362 21 c42 -41 15 -104 -45 -104 -48 0 -78 41 -62 84 20 50 69 59 107
20z m269 1 c14 -13 25 -33 25 -45 0 -32 -35 -60 -75 -60 l-35 0 0 65 0 65 30
0 c19 0 40 -9 55 -25z m272 -43 c19 -51 20 -62 8 -62 -8 0 -15 5 -15 10 0 6
-13 10 -30 10 -16 0 -30 -4 -30 -10 0 -5 -7 -10 -14 -10 -13 0 -12 9 4 55 11
31 22 60 25 66 13 21 31 1 52 -59z m405 16 c3 -45 6 -53 23 -53 17 0 21 8 25
49 7 66 30 74 30 11 0 -61 -14 -85 -48 -85 -40 0 -52 17 -52 77 0 69 18 69 22
1z m323 32 c16 -18 16 -22 2 -43 -10 -15 -12 -29 -6 -38 12 -20 11 -29 -4 -29
-8 0 -20 12 -27 28 l-14 27 -4 -27 c-2 -16 -10 -28 -18 -28 -10 0 -14 14 -14
58 0 32 3 62 7 65 13 14 61 6 78 -13z m255 5 c7 -8 10 -23 7 -34 -2 -10 0 -26
5 -35 15 -26 -9 -46 -53 -46 l-39 0 0 65 0 65 34 0 c18 0 39 -7 46 -15z m267
-53 c19 -51 20 -62 8 -62 -8 0 -15 5 -15 10 0 6 -13 10 -30 10 -16 0 -30 -4
-30 -10 0 -5 -7 -10 -14 -10 -13 0 -12 9 4 55 11 31 22 60 25 66 13 21 31 1
52 -59z m230 26 l28 -42 3 43 c5 65 26 46 30 -27 4 -76 -14 -83 -55 -20 l-28
42 -3 -42 c-5 -67 -22 -49 -22 23 0 36 4 65 10 65 5 0 22 -19 37 -42z m308
-10 c10 -29 20 -59 23 -65 2 -7 -3 -13 -12 -13 -9 0 -16 5 -16 10 0 14 -43 13
-58 -2 -21 -21 -24 0 -7 54 22 65 23 68 39 68 6 0 20 -24 31 -52z"/>
<path d="M1413 3003 c-53 -11 -81 -93 -48 -140 33 -47 137 -47 170 0 52 74
-24 161 -122 140z"/>
<path d="M2415 2998 c-3 -8 -5 -50 -3 -94 l3 -79 68 2 c87 2 123 16 136 56 14
38 -2 92 -31 108 -11 6 -53 13 -94 16 -59 5 -75 3 -79 -9z"/>
<path d="M1900 2430 l0 -30 74 0 c83 0 106 6 106 26 0 21 -43 34 -116 34 l-64
0 0 -30z"/>
<path d="M1900 2300 c0 -30 0 -30 58 -30 31 0 74 3 95 7 31 5 38 9 35 27 -3
19 -10 21 -95 24 l-93 3 0 -31z"/>
<path d="M1803 1903 c-53 -11 -81 -93 -48 -140 21 -30 75 -44 120 -32 42 12
65 42 65 86 0 60 -65 101 -137 86z"/>
<path d="M2805 1898 c-3 -8 -5 -50 -3 -94 l3 -79 68 2 c87 2 123 16 136 56 14
38 -2 92 -31 108 -11 6 -53 13 -94 16 -59 5 -75 3 -79 -9z"/>
<path d="M1404 1255 c-7 -29 10 -55 36 -55 24 0 42 24 38 52 -2 18 -10 24 -35
26 -28 3 -33 -1 -39 -23z"/>
<path d="M1690 1244 c0 -44 1 -45 28 -42 51 6 37 88 -15 88 -9 0 -13 -15 -13
-46z"/>
<path d="M1980 1240 c0 -11 6 -20 14 -20 9 0 12 7 9 20 -3 11 -9 20 -14 20 -5
0 -9 -9 -9 -20z"/>
<path d="M2700 1271 c0 -15 6 -21 21 -21 25 0 22 33 -4 38 -12 2 -17 -3 -17
-17z"/>
<path d="M2960 1270 c0 -22 7 -25 29 -11 16 10 6 31 -15 31 -8 0 -14 -9 -14
-20z"/>
<path d="M2960 1215 c0 -8 9 -15 20 -15 11 0 20 7 20 15 0 8 -9 15 -20 15 -11
0 -20 -7 -20 -15z"/>
<path d="M3230 1240 c0 -11 6 -20 14 -20 9 0 12 7 9 20 -3 11 -9 20 -14 20 -5
0 -9 -9 -9 -20z"/>
<path d="M3777 1256 c-11 -27 -8 -36 8 -36 16 0 17 5 6 34 -7 18 -8 18 -14 2z"/>
</g>
</svg>
